<svg version="1.1" id="Layer_1" xmlns="http://www.w3.org/2000/svg" xmlns:xlink="http://www.w3.org/1999/xlink" x="0px" y="0px"
	 width="100%" viewBox="0 0 184 169" enable-background="new 0 0 184 169" xml:space="preserve">
<path fill="#FEFEFE" opacity="1.000000" stroke="none" 
	d="
M1.000000,85.000000 
	C1.000000,57.017517 1.000000,29.035030 1.000000,1.026273 
	C62.277439,1.026273 123.554893,1.026273 184.916168,1.026273 
	C184.916168,57.242104 184.916168,113.484367 184.916168,169.863312 
	C123.666862,169.863312 62.333481,169.863312 1.000000,169.863312 
	C1.000000,143.904953 1.000000,117.921135 1.344331,91.519379 
	C5.925351,97.006851 9.812252,99.239441 14.070540,97.505585 
	C16.572105,96.487022 18.684916,94.513702 21.265484,93.268372 
	C21.662695,95.385193 21.855391,97.203377 21.857666,99.021782 
	C21.880785,117.501167 21.823639,135.980774 21.895615,154.459900 
	C21.928665,162.946030 26.836388,167.890244 35.173531,167.978073 
	C42.830814,168.058762 50.490871,168.081650 58.147411,167.971024 
	C66.158791,167.855255 71.071419,162.786179 71.117317,154.716980 
	C71.165611,146.226715 71.079048,137.735580 71.144150,129.245529 
	C71.202087,121.689560 74.959816,118.042290 82.607170,118.002457 
	C88.600334,117.971237 94.594009,117.963799 100.587059,118.004471 
	C108.127579,118.055641 111.810486,121.771729 111.859001,129.439758 
	C111.911667,137.763474 111.843079,146.087921 111.879425,154.411819 
	C111.917366,163.101944 116.758217,167.913803 125.546028,167.985580 
	C131.871887,168.037262 138.225601,167.620148 144.519196,168.073776 
	C157.872971,169.036270 162.106842,161.030304 161.880585,150.569519 
	C161.503006,133.110825 161.339432,115.647179 161.171051,98.184799 
	C161.154312,96.449272 161.727524,94.708054 162.326019,93.131142 
	C169.426300,99.165131 174.557831,99.466599 178.989319,94.254143 
	C183.068909,89.455597 181.867172,84.020828 175.482986,78.435402 
	C150.181564,56.299576 124.892448,34.149658 99.566345,12.042115 
	C93.453590,6.706205 89.655464,6.570625 83.801140,11.734991 
	C56.163986,36.114975 28.593962,60.571056 1.000000,85.000000 
z"/>
<path fill="#183452" opacity="1.000000" stroke="none" 
	d="
M20.972588,92.969833 
	C18.684916,94.513702 16.572105,96.487022 14.070540,97.505585 
	C9.812252,99.239441 5.925351,97.006851 1.344331,91.050720 
	C1.000000,89.285645 1.000000,87.571281 1.000000,85.428467 
	C28.593962,60.571056 56.163986,36.114975 83.801140,11.734991 
	C89.655464,6.570625 93.453590,6.706205 99.566345,12.042115 
	C124.892448,34.149658 150.181564,56.299576 175.482986,78.435402 
	C181.867172,84.020828 183.068909,89.455597 178.989319,94.254143 
	C174.557831,99.466599 169.426300,99.165131 162.215851,92.812302 
	C139.628830,72.988571 117.394104,53.709793 95.338577,34.228142 
	C92.256271,31.505548 90.446648,31.743053 87.533974,34.351112 
	C76.015594,44.664864 64.229706,54.679081 52.613529,64.884628 
	C42.019169,74.192429 31.515966,83.603996 20.972588,92.969833 
z"/>
<path fill="#A1ADB9" opacity="1.000000" stroke="none" 
	d="
M21.265486,93.268372 
	C31.515966,83.603996 42.019169,74.192429 52.613529,64.884628 
	C64.229706,54.679081 76.015594,44.664864 87.533974,34.351112 
	C90.446648,31.743053 92.256271,31.505548 95.338577,34.228142 
	C117.394104,53.709793 139.628830,72.988571 161.916779,92.650650 
	C161.727524,94.708054 161.154312,96.449272 161.171051,98.184799 
	C161.339432,115.647179 161.503006,133.110825 161.880585,150.569519 
	C162.106842,161.030304 157.872971,169.036270 144.519196,168.073776 
	C138.225601,167.620148 131.871887,168.037262 125.546028,167.985580 
	C116.758217,167.913803 111.917366,163.101944 111.879425,154.411819 
	C111.843079,146.087921 111.911667,137.763474 111.859001,129.439758 
	C111.810486,121.771729 108.127579,118.055641 100.587059,118.004471 
	C94.594009,117.963799 88.600334,117.971237 82.607170,118.002457 
	C74.959816,118.042290 71.202087,121.689560 71.144150,129.245529 
	C71.079048,137.735580 71.165611,146.226715 71.117317,154.716980 
	C71.071419,162.786179 66.158791,167.855255 58.147411,167.971024 
	C50.490871,168.081650 42.830814,168.058762 35.173531,167.978073 
	C26.836388,167.890244 21.928665,162.946030 21.895615,154.459900 
	C21.823639,135.980774 21.880785,117.501167 21.857666,99.021782 
	C21.855391,97.203377 21.662695,95.385193 21.265486,93.268372 
z"/>
</svg>